<?xml version="1.0" encoding="utf-8"?>
<!-- Generator: Adobe Illustrator 16.0.0, SVG Export Plug-In . SVG Version: 6.00 Build 0)  -->
<!DOCTYPE svg PUBLIC "-//W3C//DTD SVG 1.1//EN" "http://www.w3.org/Graphics/SVG/1.1/DTD/svg11.dtd">
<svg version="1.1" id="Layer_1" xmlns="http://www.w3.org/2000/svg" xmlns:xlink="http://www.w3.org/1999/xlink" x="0px" y="0px"
	 width="800px" height="271.812px" viewBox="0 0 800 271.812" enable-background="new 0 0 800 271.812" xml:space="preserve">
<path fill-rule="evenodd" clip-rule="evenodd" fill="#FFFFFF" d="M26.39,58.001c0,0-9.099-7.961-9.099-21.609
	c0,0-1.137-23.883,25.021-25.021H193.57c0,0,2.274,0,3.412-1.137c2.274-2.275,4.548-6.824,13.647-7.962
	C218.59,0,227.689,0,227.689,0s10.236,0,13.647,5.686c4.548,5.687,3.412,6.824,6.824,6.824h502.681c0,0,9.099-10.236,20.471-9.098
	c0,0,13.648-1.138,22.747,14.784c0,0,3.412,6.824,3.412,13.647c0,6.824-3.412,29.571-27.295,29.571c0,0-3.412,0-4.55-1.138v61.413
	c0,0,1.138,10.236-7.961,18.197c0,0,10.235,5.687,13.646,19.334c0,0,2.276,7.961,2.276,13.648c0,5.686,0,18.196-14.785,26.156
	c0,0-7.962,3.412-23.884,4.549c-15.921,2.275-56.863,4.551-67.1,4.551l-93.258,4.549c0,0-68.237,4.549-73.923,4.549
	c-5.688,0-71.65,5.686-85.297,6.824c-12.512,1.137-52.316,4.549-63.689,5.686c-12.51,1.138-59.138,4.549-80.747,7.961
	c-21.609,2.275-70.512,7.962-83.023,10.235c-11.372,2.274-52.314,7.962-69.373,10.236c-18.198,2.274-84.161,12.51-89.847,12.51
	c0,0-3.412,1.138-5.686,1.138c-1.138,0-4.55-2.274-7.961-3.412c0,0-5.686-4.549-11.374-12.51c0,0-2.273-5.688-2.273-13.647
	c0-7.962,1.138-12.511,5.686-18.196c5.688-4.551,15.923-9.099,15.923-9.099s0-10.235,4.548-15.923c0,0-4.548-2.273-7.96-7.96
	c0,0-3.412-4.55-3.412-14.786c0-9.098,2.274-13.646,11.373-20.471L26.39,58.001z"/>
<path fill-rule="evenodd" clip-rule="evenodd" fill="#7D8183" d="M71.88,116.003v36.393c0,0-1.136,11.374,10.235,11.374
	c11.374,0,47.767-11.374,47.767-31.845c0-4.55-1.136-3.412-1.136-6.824c0-3.412-2.276-9.098-5.688-11.373
	c-4.548-4.548-18.196-5.687-18.196-5.687s-1.137,1.138-6.823,2.274c-5.688,0-13.647,2.275-17.059,2.275
	C71.88,113.728,71.88,116.003,71.88,116.003 M73.018,96.668c0,0-1.138-35.255-1.138-36.393c0-1.138-1.136-15.922,14.785-14.786
	c14.786,1.138,34.119,3.412,34.119,15.923C120.784,93.257,73.018,96.668,73.018,96.668z M41.173,161.493
	c0-40.942-1.136-104.629-1.136-104.629s0-3.412-1.138-5.686c-2.274-5.688-7.961-2.276-7.961-11.374
	c0-9.098,11.374-7.961,19.335-7.961c7.96,0,65.962-1.136,65.962-1.136s31.844,1.136,32.982,31.843
	c0,22.747-17.059,36.394-17.059,36.394S164,105.768,164,129.651c0,22.744-21.607,39.805-55.727,45.49
	c-36.394,5.688-54.589,9.099-62.551,10.235c-7.961,2.276-14.785,1.138-14.785-6.823S41.173,170.593,41.173,161.493z"/>
<path fill-rule="evenodd" clip-rule="evenodd" fill="#7D8183" d="M211.767,60.276c-1.137,0-1.137,1.138-1.137,1.138l-12.511,35.255
	h27.295c0,0,0,0-1.137-3.412c-1.138-2.274-11.373-30.707-11.373-30.707S212.904,60.276,211.767,60.276 M168.55,135.337
	c-2.274,3.412-5.686,4.549-5.686,9.098c0,5.688,4.548,5.688,4.548,5.688h19.334c0,0,3.412,1.137,5.686-1.139
	c1.137-1.137-1.138-4.549-1.138-5.686c-1.136-2.275-5.686-3.412-4.548-9.099c0-3.412,4.548-13.648,5.686-17.06
	c1.137-3.412,2.274-5.686,2.274-5.686h35.256c0,0,5.686,20.471,5.686,23.883c0,2.273-4.548,2.273-4.548,7.961
	c0,4.549,4.548,4.549,4.548,4.549h21.609c11.373,0,13.647-2.274,13.647-7.961s-4.55-1.137-6.824-6.822
	c-12.509-35.257-21.609-56.866-34.118-89.847c-2.274-6.824,0-12.51-11.374-12.51c-11.372,0-14.784,11.372-14.784,11.372
	l-34.119,90.985C169.688,133.063,169.688,134.199,168.55,135.337z"/>
<path fill-rule="evenodd" clip-rule="evenodd" fill="#7D8183" d="M282.279,37.53h21.608c0,0,5.688-1.137,4.55,4.548
	c0,9.1-4.55,3.412-4.55,13.648c-1.136,9.099-1.136,19.334-1.136,19.334h32.981c0,0,1.138-11.374,1.138-19.334
	c0-9.099-5.687-5.687-5.687-12.51s5.687-5.687,7.961-5.687c1.138,0,21.609-1.137,21.609-1.137s6.824-1.138,6.824,5.686
	c0,7.962-5.687,3.412-5.687,12.511c0,9.098,0,42.079,0,68.238c0,4.548,5.687,4.548,5.687,11.372c0,4.55-3.412,4.55-5.687,4.55
	c-2.274,0-23.884,1.137-23.884,1.137s-6.823,0-6.823-4.549c0-10.236,5.687-3.412,5.687-12.51c0-10.236,0-32.982,0-32.982H302.75
	c0,0,0,20.471,0,34.119c0,6.824,6.824,2.275,6.824,10.236c0,5.687-5.688,5.687-5.688,5.687h-23.883c0,0-4.548,0-4.548-4.549
	c0-7.962,5.686-5.686,5.686-12.51s-1.138-42.081,0-68.238c0-5.687-5.686-5.687-5.686-11.373
	C275.456,38.667,278.868,37.53,282.279,37.53"/>
<path fill-rule="evenodd" clip-rule="evenodd" fill="#7D8183" d="M426.714,31.843c-13.647,0-48.903,11.374-48.903,53.454
	c0,36.393,32.981,44.355,32.981,44.355l-2.274,12.51l1.137,2.273c0,0,1.138-1.137,4.55-1.137s4.55,1.137,4.55,4.549
	s-2.276,4.549-3.412,4.549c-1.138,0-5.688-2.273-6.824-2.273c-2.275,0-3.412,1.137-3.412,3.412c0,2.273,3.412,6.824,11.372,6.824
	c7.962,0,13.648-4.551,13.648-13.648c0-13.646-13.648-11.373-13.648-11.373l1.139-4.55c0,0,5.686,1.138,10.235,1.138
	c7.961,0,26.157-3.412,31.844-22.745c1.137-3.412-4.549-4.549-6.822-4.549c-5.688,0-7.962,14.785-23.885,14.785
	c-14.784,0-27.294-12.511-27.294-37.53c0-23.883,11.372-37.531,26.157-37.531c19.333,0,17.06,22.745,25.021,22.745
	c6.822,0,5.686-5.686,6.822-6.823c0-1.138-1.137-10.236-1.137-10.236s1.137-5.686-5.686-10.236
	C447.185,36.393,436.95,31.843,426.714,31.843"/>
<path fill-rule="evenodd" clip-rule="evenodd" fill="#7D8183" d="M473.344,32.98h22.744c0,0,5.688-1.138,5.688,4.549
	c0,7.96-5.688,4.548-5.688,12.51c0,12.51,1.139,38.668,1.139,64.826c0,6.823,4.549,3.412,4.549,10.235
	c0,4.55-2.275,5.686-5.688,5.686c-2.273,0-21.608,0-21.608,0s-5.687,0-5.687-4.549c0-9.099,5.687-1.137,5.687-13.647
	c0-12.511,0-37.53,0-62.551c0-6.824-6.823-4.55-6.823-11.373C467.657,32.98,473.344,32.98,473.344,32.98"/>
<path fill-rule="evenodd" clip-rule="evenodd" fill="#7D8183" d="M513.149,32.98l23.883-1.138c0,0,6.823,0,6.823,4.55
	c0,6.824-6.823,5.686-6.823,11.374c0,13.647,21.608,60.275,21.608,60.275s17.06-37.53,17.06-58.001c0-7.962-9.1-5.686-9.1-12.51
	c0-4.549,2.276-5.687,5.688-5.687c6.823,0,18.196,0,18.196,0s5.688,0,5.688,5.687c0,5.687-4.55,5.687-5.688,7.96
	c-5.687,20.472-18.196,61.414-21.607,68.238c-3.412,7.961-6.824,14.785-12.512,15.923c-5.686,1.136-12.51,1.136-13.647,0
	c-2.273-2.276-6.824-10.236-10.236-20.472c-5.686-12.511-14.783-39.806-17.059-48.904c-1.137-9.098-2.273-11.374-3.412-13.648
	c-2.273-2.274-4.548-5.686-4.548-7.961C507.462,34.119,513.149,32.98,513.149,32.98"/>
<path fill-rule="evenodd" clip-rule="evenodd" fill="#7D8183" d="M612.092,87.571h21.608c0,0-10.234-32.981-11.373-32.981
	C621.19,54.589,612.092,87.571,612.092,87.571 M626.878,31.843c6.822,0,7.96,0,11.371,6.824
	c2.275,6.823,15.924,45.492,26.158,75.061c1.137,3.412,1.137,4.549,1.137,4.549c3.412,2.274,3.412,4.55,3.412,5.686
	c0,4.549-3.412,5.688-5.686,5.688c-3.412,0-21.609,0-21.609,0s-4.549-1.139-4.549-4.55c0-5.686,3.412-3.412,3.412-7.961
	c0-4.548-3.412-17.059-3.412-17.059h-28.432c0,0-2.275,6.823-3.412,14.785c-1.138,4.549,4.549,3.412,4.549,10.235
	c0,3.412-1.137,5.686-4.549,5.686c-2.274,0-18.197,0-18.197,0s-3.411-1.136-3.411-4.549c0-5.687,3.411-5.687,4.549-7.961
	c1.138-3.412,25.021-73.923,27.295-78.473C617.779,35.255,620.054,31.843,626.878,31.843z"/>
<path fill-rule="evenodd" clip-rule="evenodd" fill="#7D8183" d="M676.917,32.98c5.686,0,7.962,0,15.922,0
	c3.412,0,4.55-1.138,10.236,5.687c4.549,7.961,30.706,44.354,30.706,44.354s4.55,5.687,4.55-2.274c0-6.823,0-18.197,0-29.568
	c0-10.236-7.961-6.824-7.961-12.511c0-5.687,6.823-6.824,9.099-6.824h10.236c0,0,4.548,0,4.548,4.55
	c0,7.961-5.687,3.412-5.687,15.922c0,12.511,0,69.375,0,69.375s1.139,7.962-4.55,7.962h-7.96c0,0-2.275,0-5.687-5.688
	c-3.412-4.548-38.667-58.001-38.667-58.001s-1.138-1.137-1.138,3.412c0,3.412,0,25.021,0,43.218c0,10.236,7.961,6.824,7.961,12.51
	s-3.412,5.686-5.688,5.686c-2.273,0-15.922,0-15.922,0s-4.549,0-4.549-4.549c0-7.961,6.824-1.137,6.824-15.922
	c0-14.784,0-35.255-1.137-56.864c0-13.648-7.962-6.824-7.962-14.785C670.094,31.843,675.781,32.98,676.917,32.98"/>
<path fill-rule="evenodd" clip-rule="evenodd" fill="#7D8183" d="M36.625,218.359c0-4.55,1.136-11.374,15.922-12.511
	c18.197-2.275,213.81-23.883,351.422-32.98c129.65-7.963,334.362-11.375,334.362-11.375s18.196-2.273,18.196,13.648
	c0,12.512-12.511,13.646-17.059,13.646c-3.412,1.139-209.262,11.375-373.031,25.021c-196.75,15.922-342.324,43.217-342.324,43.217
	s-9.098-3.412-9.098-13.648c0-12.509,30.707-12.509,30.707-12.509S36.625,226.319,36.625,218.359"/>
<path fill-rule="evenodd" clip-rule="evenodd" fill="#ED212A" d="M74.155,112.591l1.137,36.392c0,0-2.274,11.375,9.099,11.375
	c12.51,0,47.766-11.375,47.766-31.846c0-4.549-1.138-3.412-1.138-6.824c0-3.412-1.138-9.098-4.55-11.373
	c-5.686-4.548-19.333-5.686-19.333-5.686s-1.137,1.137-5.686,2.273c-5.688,1.138-13.647,2.276-18.197,2.276
	C75.292,110.316,74.155,112.591,74.155,112.591 M75.292,93.257c0,0,0-35.255,0-36.393c0-1.137-1.137-15.921,13.647-14.786
	c14.785,1.138,35.256,3.412,35.256,15.923C124.196,90.982,75.292,93.257,75.292,93.257z M44.585,158.082
	c0-40.942-1.137-104.63-1.137-104.63s0-3.412-1.138-5.686c-2.274-5.688-9.098-2.276-9.098-11.374c0-9.098,11.373-7.961,19.334-7.961
	c7.961,0,65.963,0,65.963,0s32.98,0,32.98,31.845c1.138,21.609-15.922,35.256-15.922,35.256s31.844,6.824,31.844,30.706
	c0,22.745-21.607,40.942-56.864,45.491c-35.256,5.688-53.452,9.1-62.551,10.236c-7.96,2.274-14.784,2.274-14.784-6.824
	C33.213,167.181,44.585,168.317,44.585,158.082z"/>
<path fill-rule="evenodd" clip-rule="evenodd" fill="#ED212A" d="M214.042,56.864c-1.138,0-1.138,1.138-1.138,1.138l-12.51,35.255
	h28.431c0,0,0,0-1.136-2.274c-1.138-3.412-11.373-31.845-11.373-31.845S216.316,56.864,214.042,56.864 M171.962,131.925
	c-2.274,3.412-6.824,4.549-6.824,9.098c0,5.688,5.686,5.688,5.686,5.688h19.335c0,0,3.411,1.137,4.548-1.138
	c1.137-1.138,0-4.55-1.137-5.687c0-2.275-4.549-3.412-4.549-9.099c0-3.412,5.687-13.647,6.824-17.059
	c1.138-2.274,1.138-5.687,1.138-5.687h35.255c0,0,5.688,20.471,5.688,23.883c0,2.274-4.55,2.274-4.55,7.961s5.687,4.549,5.687,4.549
	h21.609c11.373,0,13.647-1.137,13.647-6.824c0-6.823-4.55-2.273-6.824-7.959c-12.51-35.257-21.609-56.866-34.119-89.847
	c-2.273-6.824,0-11.373-11.373-11.373c-12.51,0-14.784,10.236-14.784,10.236L173.1,129.651
	C173.1,129.651,173.1,130.787,171.962,131.925z"/>
<path fill-rule="evenodd" clip-rule="evenodd" fill="#ED212A" d="M284.553,34.119h21.609c0,0,5.686-1.138,5.686,4.548
	c0,9.099-4.549,3.411-5.686,13.647c0,10.235,0,19.334,0,19.334h32.98c0,0,0-11.373,0-19.334c0-9.098-5.686-5.687-5.686-12.51
	s6.824-5.686,7.96-5.686c2.275,0,22.747-1.138,22.747-1.138s5.686-1.138,5.686,5.687c0,7.961-4.55,3.411-4.55,12.511
	c0,9.098,0,42.079,0,68.237c0,4.548,5.688,4.548,5.688,11.372c0,4.55-4.55,4.55-5.688,4.55c-2.274,1.137-25.019,1.137-25.019,1.137
	s-5.688,0-5.688-4.549c0-10.236,5.688-2.273,5.688-12.51c0-10.235-1.138-32.982-1.138-32.982h-34.118c0,0,0,20.471,1.138,34.119
	c0,6.824,5.686,3.412,5.686,10.236c0,5.687-5.686,5.687-5.686,5.687h-22.747c0,0-4.548,0-4.548-4.549
	c0-7.961,4.548-5.687,4.548-12.51c0-6.824,0-42.08,0-68.237c0-5.688-5.687-4.55-5.687-11.374
	C277.729,36.393,281.142,34.119,284.553,34.119"/>
<path fill-rule="evenodd" clip-rule="evenodd" fill="#ED212A" d="M430.126,28.431c-13.648,0-48.903,11.373-48.903,53.454
	c0,36.393,32.981,45.49,32.981,45.49l-3.412,11.374l2.274,2.273c0,0,1.138-1.137,4.55-1.137c3.411,0,4.55,1.137,4.55,4.549
	s-2.276,4.549-3.412,4.549c-2.276,0-5.688-2.273-7.962-2.273c-1.138,0-2.274,2.273-2.274,3.412c0,2.273,2.274,6.824,11.372,6.824
	c7.962,0,13.647-4.551,13.647-12.512c0-14.783-13.647-12.51-13.647-12.51l1.138-4.55c0,0,4.55,1.138,10.236,1.138
	c7.961,0,26.156-3.412,31.844-22.745c1.137-3.412-4.549-4.55-6.824-4.55c-5.687,0-9.099,14.785-25.02,14.785
	c-13.647,0-27.295-12.511-27.295-37.53c0-23.884,12.509-37.531,27.295-37.531c18.197,0,17.059,22.745,25.02,22.745
	c5.688,0,5.688-5.686,5.688-6.824c0-1.137,0-10.236,0-10.236s0-5.686-5.688-9.098C449.461,32.98,440.362,28.431,430.126,28.431"/>
<path fill-rule="evenodd" clip-rule="evenodd" fill="#ED212A" d="M476.756,29.569H499.5c0,0,4.551-1.138,4.551,4.55
	c0,7.959-4.551,4.548-4.551,13.647c0,11.372,0,37.53,0,63.688c0,6.824,5.686,4.549,5.686,10.235c0,4.549-2.273,5.686-5.686,5.686
	s-22.744,0-22.744,0s-5.688,0-5.688-4.548c0-7.961,6.823,0,6.823-12.511c0-13.647,0-38.667,0-63.688
	c0-6.824-6.823-4.55-6.823-11.373C471.069,29.569,476.756,29.569,476.756,29.569"/>
<path fill-rule="evenodd" clip-rule="evenodd" fill="#ED212A" d="M516.56,29.569l23.884-1.138c0,0,5.686,0,5.686,4.549
	c0,6.824-6.824,5.687-6.824,11.374c0,13.647,21.609,61.414,21.609,61.414s17.06-38.668,17.06-59.14
	c0-7.961-9.098-5.686-9.098-12.509c0-4.55,3.411-4.55,5.686-5.688c6.823,0,18.197,0,18.197,0s5.686,0,5.686,5.688
	c0,6.824-4.55,5.686-4.55,7.959c-5.686,20.472-19.333,61.414-22.745,69.375c-3.411,6.824-5.686,14.785-12.51,15.921
	c-5.687,1.138-11.373,1.138-13.647-1.137c-1.138-2.275-5.688-10.235-10.235-20.471c-4.55-12.511-13.647-39.806-15.923-48.904
	c-2.274-9.098-2.274-11.374-4.549-13.647c-1.137-2.274-4.549-5.687-4.549-7.961C509.737,30.707,516.56,29.569,516.56,29.569"/>
<path fill-rule="evenodd" clip-rule="evenodd" fill="#ED212A" d="M615.504,84.159h21.608L625.74,52.314
	C624.602,52.314,615.504,84.159,615.504,84.159 M629.152,29.569c6.824,0,9.098-1.138,11.373,5.686
	c2.274,6.823,17.061,45.492,26.158,76.199c1.137,2.274,1.137,3.412,2.273,3.412c2.275,3.412,3.412,4.549,3.412,6.823
	c0,3.412-3.412,4.549-6.824,4.549c-2.273,0-21.607,0-21.607,0s-3.412,0-4.549-3.411c0-6.824,3.411-4.55,3.411-9.099
	c0-4.548-3.411-17.06-3.411-17.06h-27.296c0,0-3.411,7.962-4.549,14.785c-1.138,4.549,5.687,3.412,5.687,10.235
	c0,3.412-2.275,5.686-4.549,5.686c-3.412,0-19.334,0-19.334,0s-2.275-1.137-2.275-4.548c0-4.55,3.412-5.688,4.55-7.961
	c1.138-3.412,25.021-73.923,27.294-78.473C621.19,31.843,623.466,29.569,629.152,29.569z"/>
<path fill-rule="evenodd" clip-rule="evenodd" fill="#ED212A" d="M680.33,29.569c5.687,0,6.824,0,15.922,0
	c3.412,0,4.55-1.138,9.1,5.686c5.686,7.961,30.706,44.354,30.706,44.354s4.549,5.688,4.549-2.274c0-6.824,0-18.197,0-29.569
	c0-9.099-7.96-6.824-7.96-12.511c0-5.686,7.96-6.824,9.098-6.824h11.373c0,0,4.549,0,4.549,4.549c0,7.962-6.824,3.412-6.824,15.922
	c0,12.511,1.138,69.375,1.138,69.375s1.138,7.961-5.686,7.961h-6.824c0,0-3.412,0-5.688-5.687
	c-3.411-4.548-39.804-58.001-39.804-58.001s-1.139-1.136-1.139,3.412c0,3.412,0,25.021,1.139,44.354
	c0,9.099,6.823,5.687,6.823,11.373s-3.412,5.686-4.55,5.686c-2.273,0-17.059,0-17.059,0s-4.549,0-4.549-4.548
	c0-7.961,6.824-1.138,6.824-15.923c0-14.784,0-35.255,0-56.864c0-13.647-7.963-6.824-7.963-14.785
	C673.505,28.431,679.193,29.569,680.33,29.569"/>
<path fill-rule="evenodd" clip-rule="evenodd" fill="#ED212A" d="M772.45,44.354c-3.411,0-5.686-1.138-7.961-3.412
	c-2.274-2.275-3.412-5.688-3.412-9.1c0-3.412,1.138-5.686,3.412-7.96c2.275-3.412,4.55-4.55,7.961-4.55
	c3.412,0,5.687,1.138,7.961,4.55c2.275,2.274,3.412,4.548,3.412,7.96c0,3.412-1.137,6.824-3.412,9.1
	C778.136,43.216,775.862,44.354,772.45,44.354 M772.45,21.607c-2.273,0-4.549,1.138-6.823,3.412
	c-2.274,2.275-2.274,4.549-2.274,6.823c0,3.412,0,5.687,2.274,7.961c2.274,1.138,4.55,2.274,6.823,2.274
	c2.274,0,4.551-1.136,6.824-2.274c1.137-2.274,2.274-4.549,2.274-7.961c0-2.274-1.138-4.548-2.274-6.823
	C777,22.745,774.724,21.607,772.45,21.607z M774.724,32.98L777,38.667h-2.276l-2.274-5.687h-2.273v5.687h-2.275V25.02h5.688
	c2.273,0,3.412,1.138,3.412,3.412c0,1.138,0,2.275,0,3.412C775.862,31.843,774.724,32.98,774.724,32.98z M772.45,27.294h-2.273
	v3.412h1.136c2.276,0,2.276,0,3.412,0l1.138-1.138c0-1.138,0-2.274-1.138-2.274C774.724,27.294,773.588,27.294,772.45,27.294z"/>
<path fill-rule="evenodd" clip-rule="evenodd" fill="#1F834B" d="M40.037,214.947c0-4.55,1.136-11.374,14.784-12.511
	c18.197-2.273,213.811-23.883,351.422-32.98c130.789-7.963,335.501-11.374,335.501-11.374s18.196-2.274,18.196,13.647
	c-1.137,12.511-13.646,13.647-17.059,13.647c-3.412,1.138-209.262,11.374-373.031,25.021C173.1,226.319,26.39,253.614,26.39,253.614
	s-7.962-3.412-7.962-13.646c0-12.511,30.707-12.511,30.707-12.511S40.037,222.907,40.037,214.947"/>
</svg>
